<svg width="42" height="48" viewBox="0 0 42 48" fill="none" xmlns="http://www.w3.org/2000/svg">
<path d="M17 0C14.243 0 12 2.243 12 5V8H2C0.896 8 0 8.896 0 10C0 11.104 0.896 12 2 12H4.10938L5.79297 42.332C5.97097 45.51 8.6002 48 11.7832 48H30.2168C33.3988 48 36.029 45.51 36.207 42.332L37.8906 12H40C41.104 12 42 11.104 42 10C42 8.896 41.104 8 40 8H30V5C30 2.243 27.757 0 25 0H17ZM17 4H25C25.552 4 26 4.449 26 5V8H16V5C16 4.449 16.448 4 17 4ZM8.11328 12H33.8867L32.2129 42.1094C32.1539 43.1694 31.2778 44 30.2168 44H11.7832C10.7232 44 9.84611 43.1703 9.78711 42.1113L8.11328 12ZM21 16.25C20.033 16.25 19.25 17.034 19.25 18V38C19.25 38.966 20.033 39.75 21 39.75C21.967 39.75 22.75 38.966 22.75 38V18C22.75 17.034 21.967 16.25 21 16.25ZM13.6426 16.252C12.6776 16.286 11.9221 17.0945 11.9551 18.0605L12.6523 38.1465C12.6853 39.0915 13.4624 39.8359 14.4004 39.8359C14.4214 39.8359 14.4419 39.8359 14.4629 39.8359C15.4279 39.8019 16.1834 38.9914 16.1504 38.0254L15.4531 17.9395C15.4191 16.9745 14.6066 16.229 13.6426 16.252ZM28.3555 16.252C27.3885 16.225 26.5809 16.9745 26.5469 17.9395L25.8496 38.0254C25.8156 38.9914 26.5711 39.8019 27.5371 39.8359C27.5581 39.8369 27.5786 39.8359 27.5996 39.8359C28.5376 39.8359 29.3147 39.0915 29.3477 38.1465L30.0449 18.0605C30.0789 17.0945 29.3215 16.286 28.3555 16.252Z" fill="#E03C39"/>
</svg>
