<svg width="58" height="14" viewBox="0 0 58 14" fill="none" xmlns="http://www.w3.org/2000/svg">
<path fill-rule="evenodd" clip-rule="evenodd" d="M6.63231 13.2646C4.87331 13.2646 3.18636 12.5659 1.94256 11.3221C0.698759 10.0783 0 8.3913 0 6.63231C0 4.87331 0.698759 3.18636 1.94256 1.94256C3.18636 0.698758 4.87331 0 6.63231 0C8.3913 0 10.0783 0.698758 11.3221 1.94256C12.5659 3.18636 13.2646 4.87331 13.2646 6.63231C13.2646 8.3913 12.5659 10.0783 11.3221 11.3221C10.0783 12.5659 8.3913 13.2646 6.63231 13.2646ZM28.74 13.2646C26.981 13.2646 25.294 12.5659 24.0502 11.3221C22.8064 10.0783 22.1077 8.3913 22.1077 6.63231C22.1077 4.87331 22.8064 3.18636 24.0502 1.94256C25.294 0.698758 26.981 0 28.74 0C30.499 0 32.186 0.698758 33.4297 1.94256C34.6735 3.18636 35.3723 4.87331 35.3723 6.63231C35.3723 8.3913 34.6735 10.0783 33.4297 11.3221C32.186 12.5659 30.499 13.2646 28.74 13.2646ZM50.8477 13.2646C49.0887 13.2646 47.4017 12.5659 46.1579 11.3221C44.9141 10.0783 44.2154 8.3913 44.2154 6.63231C44.2154 4.87331 44.9141 3.18636 46.1579 1.94256C47.4017 0.698758 49.0887 0 50.8477 0C52.6067 0 54.2936 0.698758 55.5374 1.94256C56.7812 3.18636 57.48 4.87331 57.48 6.63231C57.48 8.3913 56.7812 10.0783 55.5374 11.3221C54.2936 12.5659 52.6067 13.2646 50.8477 13.2646Z" fill="#72767A"/>
</svg>
