<svg width="68" height="75" viewBox="0 0 68 75" fill="none" xmlns="http://www.w3.org/2000/svg">
<circle cx="33.9093" cy="15.5799" r="11.9141" fill="white" stroke="white" stroke-width="7.33173"/>
<mask id="path-2-inside-1_2_23" fill="white">
<path fill-rule="evenodd" clip-rule="evenodd" d="M67.8186 71.4481C67.801 50.7125 52.626 33.909 33.9093 33.909C15.1817 33.909 3.39166e-05 50.732 3.39166e-05 71.4842C3.39166e-05 72.4088 0.0301743 73.3257 0.0894257 74.2336H67.7292C67.7877 73.3375 67.8178 72.4326 67.8186 71.5202V71.4481Z"/>
</mask>
<path fill-rule="evenodd" clip-rule="evenodd" d="M67.8186 71.4481C67.801 50.7125 52.626 33.909 33.9093 33.909C15.1817 33.909 3.39166e-05 50.732 3.39166e-05 71.4842C3.39166e-05 72.4088 0.0301743 73.3257 0.0894257 74.2336H67.7292C67.7877 73.3375 67.8178 72.4326 67.8186 71.5202V71.4481Z" fill="white"/>
<path d="M67.8186 71.4481L75.1503 71.4481L75.1503 71.4419L67.8186 71.4481ZM0.0894395 74.2336L-7.22673 74.711L-6.77941 81.5653H0.0894395V74.2336ZM67.7292 74.2336V81.5653H74.5981L75.0454 74.711L67.7292 74.2336ZM67.8186 71.5202L75.1503 71.5264V71.5202H67.8186ZM75.1503 71.4419C75.1299 47.3852 57.3622 26.5773 33.9093 26.5773V41.2408C47.8899 41.2408 60.4721 54.0399 60.4868 71.4543L75.1503 71.4419ZM33.9093 26.5773C10.4426 26.5773 -7.33169 47.409 -7.33169 71.4842H7.33178C7.33178 54.055 19.9208 41.2408 33.9093 41.2408V26.5773ZM-7.33169 71.4842C-7.33169 72.5682 -7.29635 73.6443 -7.22673 74.711L7.40561 73.7561C7.35673 73.0071 7.33178 72.2495 7.33178 71.4842H-7.33169ZM0.0894395 81.5653H67.7292V66.9018H0.0894395V81.5653ZM75.0454 74.711C75.1141 73.6581 75.1494 72.5962 75.1503 71.5264L60.4868 71.514C60.4862 72.2691 60.4613 73.0168 60.413 73.7561L75.0454 74.711ZM75.1503 71.5202V71.4481H60.4868V71.5202H75.1503Z" fill="white" mask="url(#path-2-inside-1_2_23)"/>
</svg>
