<svg width="80" height="80" viewBox="0 0 80 80" fill="none" xmlns="http://www.w3.org/2000/svg">
<circle cx="40" cy="40" r="40" fill="#D9D9D9"/>
<path d="M47.8207 23.5432C47.8207 27.9108 44.3023 31.4206 40.0001 31.4206C35.6979 31.4206 32.1794 27.9108 32.1794 23.5432C32.1794 19.1756 35.6979 15.6659 40.0001 15.6659C44.3023 15.6659 47.8207 19.1756 47.8207 23.5432Z" fill="white" stroke="white" stroke-width="7.33173"/>
<mask id="path-3-inside-1_29_12" fill="white">
<path fill-rule="evenodd" clip-rule="evenodd" d="M65 64.9282C64.9832 49.5688 53.7967 37.1234 40 37.1234C26.1929 37.1234 15 49.5876 15 64.9629C15 65.648 15.0223 66.3273 15.0659 67H64.9341C64.9771 66.3387 64.9993 65.671 65 64.9977V64.9282Z"/>
</mask>
<path fill-rule="evenodd" clip-rule="evenodd" d="M65 64.9282C64.9832 49.5688 53.7967 37.1234 40 37.1234C26.1929 37.1234 15 49.5876 15 64.9629C15 65.648 15.0223 66.3273 15.0659 67H64.9341C64.9771 66.3387 64.9993 65.671 65 64.9977V64.9282Z" fill="white"/>
<path d="M65 64.9282L72.3318 64.9282L72.3317 64.9201L65 64.9282ZM15.0659 67L7.74961 67.4751L8.19489 74.3317H15.0659V67ZM64.9341 67V74.3317H71.8052L72.2504 67.4751L64.9341 67ZM65 64.9977L72.3317 65.0058V64.9977H65ZM72.3317 64.9201C72.3113 46.2757 58.564 29.7916 40 29.7916V44.4551C49.0294 44.4551 57.655 52.8618 57.6683 64.9362L72.3317 64.9201ZM40 29.7916C21.4218 29.7916 7.6683 46.3001 7.6683 64.9629H22.3318C22.3318 52.875 30.9641 44.4551 40 44.4551V29.7916ZM7.6683 64.9629C7.6683 65.8066 7.69566 66.6443 7.74961 67.4751L22.3823 66.5249C22.3488 66.0103 22.3318 65.4895 22.3318 64.9629H7.6683ZM15.0659 74.3317H64.9341V59.6683H15.0659V74.3317ZM72.2504 67.4751C72.3035 66.6584 72.3308 65.8349 72.3317 65.0058L57.6683 64.9896C57.6677 65.5071 57.6507 66.019 57.6178 66.5249L72.2504 67.4751ZM72.3317 64.9977V64.9282H57.6683V64.9977H72.3317Z" fill="white" mask="url(#path-3-inside-1_29_12)"/>
</svg>
