<svg width="59" height="48" viewBox="0 0 59 48" fill="none" xmlns="http://www.w3.org/2000/svg">
<path d="M52.6118 12.485C52.5692 12.5154 52.5454 12.5657 52.5487 12.618C52.5791 13.0999 52.5791 13.582 52.5791 14.0683C52.5791 29.7478 40.4045 47.8308 18.1426 47.8333C18.14 47.8333 18.1378 47.8312 18.1378 47.8286V47.8286C18.1378 47.826 18.1357 47.8239 18.1331 47.8239C11.7805 47.8322 5.55544 46.1086 0.149197 42.8522C0.0122395 42.7697 0.0849612 42.5584 0.244191 42.5728C0.982116 42.6398 1.72256 42.6736 2.46442 42.6754C7.77133 42.68 12.9306 40.9804 17.1567 37.8435C17.2706 37.759 17.2119 37.5778 17.0703 37.5703C12.1554 37.3099 7.88133 34.156 6.27117 29.5856C6.23323 29.4779 6.32673 29.3704 6.43933 29.3893C7.9628 29.6449 9.52031 29.6106 11.0274 29.2906C11.1827 29.2576 11.179 29.0375 11.025 28.9986C5.70773 27.6554 1.94429 22.9455 1.94429 17.5085V17.5085C1.94429 17.4408 2.01687 17.3976 2.07673 17.4294C3.5699 18.2208 5.21645 18.6933 6.90787 18.8162C7.05879 18.8272 7.12296 18.6309 7.00009 18.5426C2.08922 15.0129 0.604227 8.42566 3.58431 3.18312C3.6356 3.09289 3.76151 3.08243 3.82825 3.16192C9.92897 10.4279 18.8529 14.8612 28.4392 15.3856C28.5389 15.3911 28.6157 15.2988 28.5944 15.2012C27.7056 11.1387 29.0453 6.90971 32.1406 4.05795C36.9958 -0.416395 44.6203 -0.206505 49.2095 4.51355C49.245 4.55006 49.2967 4.56676 49.3467 4.55693C51.8991 4.05477 54.3505 3.15239 56.6107 1.88715C56.7311 1.81977 56.8713 1.93487 56.8238 2.06437C55.9568 4.4295 54.349 6.46407 52.2349 7.87701C52.1001 7.96715 52.177 8.18619 52.3376 8.1629C54.3191 7.87549 56.2572 7.34676 58.1051 6.58879C58.2443 6.53171 58.3739 6.69017 58.2866 6.81263C56.7279 8.99922 54.8093 10.9146 52.6118 12.485Z" fill="white"/>
</svg>
