<svg width="95" height="88" viewBox="0 0 95 88" fill="none" xmlns="http://www.w3.org/2000/svg">
<path d="M41.9203 30.123L62.9871 51.1898" stroke="#71767A" stroke-width="7.33173"/>
<path d="M29.2802 62.4254L30.5323 41.1407C30.629 39.4968 31.4421 37.9781 32.7565 36.9862L74.9678 5.13349C75.9426 4.39791 77.1306 4 78.3517 4H84.8967C87.9993 4 90.5145 6.51518 90.5145 9.61782V14.6286C90.5145 15.9292 90.0632 17.1895 89.2377 18.1944L53.5753 61.6096C52.43 63.0038 50.6847 63.7631 48.8838 63.6506L29.2802 62.4254Z" stroke="#71767A" stroke-width="7.33173"/>
<path d="M37.7069 17.7627H11.3318C7.28255 17.7627 4.00002 21.0452 4.00002 25.0944V76.4404C4.00002 80.4896 7.28254 83.7721 11.3317 83.7721H71.1044C75.1536 83.7721 78.4362 80.4896 78.4362 76.4404V50.0652" stroke="#71767A" stroke-width="7.33173"/>
</svg>
